<svg width="53" height="53" viewBox="0 0 53 53" fill="none" xmlns="http://www.w3.org/2000/svg">
<path fill-rule="evenodd" clip-rule="evenodd" d="M52.8458 26.824C52.8333 28.1556 52.7188 29.4864 52.5025 30.8038L31.1247 52.1816C29.8073 52.398 28.4765 52.5124 27.1449 52.525L52.8458 26.824ZM45.2468 44.926C42.4457 47.7271 39.1635 49.754 35.6661 51.0065L51.3274 35.3452C50.0748 38.8426 48.048 42.1248 45.2468 44.926ZM52.6794 23.6242C52.5611 22.5853 52.3801 21.5522 52.1365 20.531L20.8519 51.8156C21.8731 52.0592 22.9062 52.2402 23.9451 52.3585L52.6794 23.6242ZM50.304 15.3581C50.7075 16.1998 51.0629 17.0588 51.3704 17.9309L18.2518 51.0495C17.3797 50.742 16.5207 50.3866 15.679 49.9831L50.304 15.3581ZM49.1234 13.1725C48.6751 12.4306 48.1863 11.7062 47.6571 11.0027L11.3236 47.3362C12.0271 47.8655 12.7514 48.3542 13.4934 48.8025L49.1234 13.1725ZM45.2468 8.22915C45.5516 8.53386 45.8471 8.84428 46.1335 9.16004L9.48092 45.8126C9.16516 45.5262 8.85475 45.2307 8.55003 44.926C8.24557 44.6215 7.95026 44.3114 7.66409 43.9959L44.3168 7.34321C44.6322 7.62937 44.9424 7.92469 45.2468 8.22915ZM42.4742 5.81954C41.7699 5.2897 41.0448 4.80043 40.302 4.35171L4.67259 39.9811C5.12131 40.7239 5.61059 41.449 6.14043 42.1533L42.4742 5.81954ZM35.5474 2.10644C36.4182 2.41351 37.2758 2.76843 38.1162 3.17123L3.49211 37.7954C3.08932 36.9549 2.73439 36.0973 2.42732 35.2266L35.5474 2.10644ZM32.9475 1.34013C31.926 1.09631 30.8925 0.915186 29.8533 0.796759L1.11764 29.5324C1.23607 30.5716 1.41719 31.6051 1.66101 32.6266L32.9475 1.34013ZM22.6728 0.973361C23.9905 0.75703 25.3217 0.642621 26.6536 0.630133L0.951017 26.3328C0.963504 25.0008 1.07791 23.6696 1.29424 22.3519L22.6728 0.973361ZM18.1316 2.14831C14.6339 3.40083 11.3514 5.42777 8.55003 8.22915C5.74866 11.0305 3.72171 14.3131 2.46919 17.8107L18.1316 2.14831Z" fill="#AD13FB"/>
</svg>
